<svg width="35" height="35" viewBox="0 0 35 35" fill="none" xmlns="http://www.w3.org/2000/svg">
<path d="M17.5 35C27.165 35 35 27.165 35 17.5C35 7.83502 27.165 0 17.5 0C7.83502 0 0 7.83502 0 17.5C0 27.165 7.83502 35 17.5 35Z" fill="#328BF3"/>
<g opacity="0.8">
<path fill-rule="evenodd" clip-rule="evenodd" d="M24.186 16.4535H18.5465V10.814C18.5465 10.5571 18.1976 10 17.5 10C16.8023 10 16.4535 10.5571 16.4535 10.814V16.4535H10.814C10.5571 16.4535 10 16.8023 10 17.5C10 18.1976 10.5571 18.5465 10.814 18.5465H16.4535V24.186C16.4535 24.4429 16.8023 25 17.5 25C18.1977 25 18.5465 24.4429 18.5465 24.186V18.5465H24.186C24.4429 18.5465 25 18.1977 25 17.5C25 16.8023 24.4428 16.4535 24.186 16.4535Z" fill="white"/>
</g>
</svg>
