<svg width="6" height="10" viewBox="0 0 6 10" fill="none" xmlns="http://www.w3.org/2000/svg">
<path fill-rule="evenodd" clip-rule="evenodd" d="M5.72264 4.6098L1.26688 0.159755C1.16382 0.0567475 1.02625 0 0.879561 0C0.732872 0 0.595301 0.0567475 0.492245 0.159755L0.164109 0.487394C-0.0494117 0.700889 -0.0494117 1.04788 0.164109 1.26105L3.90572 4.99793L0.159957 8.73895C0.0569008 8.84196 0 8.97928 0 9.1257C0 9.27228 0.0569008 9.4096 0.159957 9.51269L0.488093 9.84025C0.591231 9.94325 0.728721 10 0.875409 10C1.0221 10 1.15967 9.94325 1.26272 9.84025L5.72264 5.38614C5.82594 5.2828 5.88268 5.14484 5.88235 4.99817C5.88268 4.85094 5.82594 4.71305 5.72264 4.6098Z" fill="#1A2950"/>
</svg>
