<svg width="21" height="20" viewBox="0 0 21 20" fill="none" xmlns="http://www.w3.org/2000/svg">
<path fill-rule="evenodd" clip-rule="evenodd" d="M13.8279 8.23929L18.1264 3.94143V6.26286C18.1264 6.88071 18.6071 7.38071 19.1921 7.38286C19.7821 7.38286 20.2571 6.88071 20.2571 6.26286V1.49786C20.2571 1.48321 20.255 1.46821 20.253 1.45411L20.253 1.45397C20.2521 1.44818 20.2513 1.44254 20.2507 1.43714L20.2571 1.39286C20.255 0.802857 19.7486 0.327857 19.12 0.327857H14.2907C13.6614 0.327857 13.1543 0.802857 13.1543 1.39286C13.1543 1.97929 13.6614 2.45714 14.2907 2.45857H16.6014L12.3236 6.735C11.9079 7.15 11.9079 7.82357 12.3236 8.23857C12.7393 8.65714 13.4121 8.65714 13.8279 8.23929ZM19.1921 12.875C19.7821 12.875 20.2571 13.3764 20.2571 13.9964H20.2579V18.7593C20.2579 18.7734 20.2559 18.7879 20.2539 18.802L20.2532 18.8071L20.2514 18.8214L20.2546 18.8433L20.2579 18.865C20.2557 19.4543 19.7493 19.9293 19.12 19.9293H14.2907C13.6614 19.9293 13.1543 19.4536 13.1543 18.865C13.1543 18.2779 13.6614 17.8014 14.2907 17.8H16.6014L12.3236 13.5236C11.9079 13.1079 11.9079 12.4329 12.3236 12.0171C12.7393 11.6007 13.4121 11.6007 13.8279 12.0171L18.1264 16.3179V13.9964C18.1264 13.3764 18.6071 12.8764 19.1921 12.875ZM2.13214 16.3179L6.42857 12.0171C6.84571 11.6007 7.51929 11.6007 7.93571 12.0179C8.35 12.4336 8.35 13.1086 7.93571 13.5243L3.65786 17.8007H5.96857C6.59643 17.8021 7.10429 18.2786 7.10429 18.8657C7.10429 19.4543 6.59643 19.93 5.96857 19.93H1.13857C0.51 19.93 0.00285714 19.455 0.00142857 18.8657C0.00218259 18.857 0.00333458 18.8496 0.00446443 18.8422L0.00446595 18.8422L0.00446651 18.8422C0.00547658 18.8357 0.00646876 18.8292 0.00714286 18.8221C0.00654244 18.8137 0.00518497 18.8051 0.00381288 18.7963L0.00381193 18.7963C0.00191971 18.7843 0 18.772 0 18.76L0.00142857 13.9964C0.00142857 13.3764 0.477143 12.875 1.06571 12.875C1.65214 12.8764 2.13214 13.3764 2.13214 13.9964V16.3179ZM5.96786 2.45857H3.65786L7.93571 6.73571C8.35 7.15071 8.35 7.82429 7.93571 8.23929C7.51929 8.65714 6.84571 8.65714 6.42857 8.23929L2.13214 3.94214V6.26357C2.13214 6.88143 1.65214 7.38143 1.06571 7.38357C0.477143 7.38357 0.00142857 6.88143 0.00142857 6.26357L0 1.49786C0 1.48507 0.00203578 1.47253 0.0039809 1.46055C0.00529461 1.45246 0.00656697 1.44463 0.00714286 1.43714C0.00642857 1.42964 0.00535714 1.42232 0.00428571 1.415C0.00321429 1.40768 0.00214286 1.40036 0.00142857 1.39286C0.00285714 0.802857 0.51 0.327857 1.13857 0.327857H5.96786C6.59571 0.327857 7.10357 0.802857 7.10357 1.39286C7.10357 1.97929 6.59571 2.45714 5.96786 2.45857Z" fill="#1A2950"/>
</svg>
