<svg width="20" height="20" viewBox="0 0 20 20" fill="none" xmlns="http://www.w3.org/2000/svg">
<path fill-rule="evenodd" clip-rule="evenodd" d="M19.9516 9.76066C19.9197 9.68379 19.8741 9.61473 19.8156 9.55692L17.6791 7.42005C17.4344 7.17536 17.0382 7.17536 16.7935 7.42005C16.5494 7.66411 16.5494 8.06067 16.7935 8.30505L17.8622 9.37379L10.6248 9.37348L10.6255 2.13757L11.7404 3.25319C11.8633 3.37569 12.0229 3.43694 12.1836 3.43694C12.3436 3.43694 12.5039 3.37569 12.6261 3.25319C12.8707 3.00913 12.8707 2.61226 12.6261 2.36757L10.4423 0.183202C10.3842 0.125078 10.3155 0.0794528 10.2386 0.0475779C10.0855 -0.0158593 9.91328 -0.0158593 9.76016 0.0475779C9.68391 0.0791403 9.61548 0.124453 9.55829 0.18164C9.55829 0.18164 9.55766 0.182265 9.55704 0.182577L7.41832 2.32007C7.17426 2.56476 7.17426 2.961 7.41832 3.20569C7.54113 3.32788 7.70082 3.38913 7.86144 3.38913C8.02144 3.38913 8.18175 3.32788 8.30393 3.20569L9.37329 2.13694L9.37267 9.37348L2.1384 9.37317L3.2062 8.30505C3.45026 8.06067 3.45026 7.66411 3.2062 7.42005C2.96152 7.17536 2.56527 7.17536 2.32059 7.42005L0.183747 9.55754C0.0609365 9.67973 0 9.83973 0 10C0 10.1604 0.0609365 10.3204 0.183747 10.4429L2.36746 12.6269C2.48996 12.7497 2.64996 12.8107 2.81027 12.8107C2.97058 12.8107 3.13058 12.7497 3.25307 12.6269C3.49745 12.3822 3.49745 11.986 3.25307 11.7416L2.13715 10.6257L9.37235 10.626L9.37204 17.8613L8.30393 16.7934C8.05925 16.5497 7.66301 16.5491 7.41832 16.7938C7.17426 17.0384 7.17426 17.435 7.41832 17.6794L9.55704 19.8166C9.67922 19.9391 9.83953 20 9.99953 20C10.1598 20 10.3198 19.9391 10.442 19.8166L12.6264 17.6319C12.871 17.3872 12.871 16.9903 12.6264 16.7463C12.3817 16.5016 11.9854 16.5016 11.7408 16.7463L10.6245 17.8631L10.6251 10.626L17.8625 10.6263L16.7469 11.7416C16.5029 11.986 16.5029 12.3822 16.7469 12.6269C16.8697 12.7497 17.0294 12.8107 17.19 12.8107C17.35 12.8107 17.5104 12.7497 17.6325 12.6269L19.8166 10.4429C19.8178 10.4413 19.8184 10.4391 19.8203 10.4375C19.8756 10.3807 19.9206 10.3138 19.9519 10.2397C19.9837 10.1629 20 10.0816 20 9.99973C19.9997 9.91879 19.9834 9.83723 19.9516 9.76066Z" fill="#1A2950"/>
</svg>
