<svg width="20" height="20" viewBox="0 0 20 20" fill="none" xmlns="http://www.w3.org/2000/svg">
<path fill-rule="evenodd" clip-rule="evenodd" d="M14.0624 13.2662L18.758 18.2168C19.1553 18.6357 19.1421 19.3034 18.7293 19.7061C18.535 19.8957 18.279 20 18.0092 20C17.7242 20 17.4582 19.8852 17.2605 19.677L12.5292 14.6888C11.1858 15.6458 9.61451 16.15 7.96563 16.15C3.57345 16.15 0 12.5275 0 8.07499C0 3.62251 3.57345 0 7.96563 0C12.3578 0 15.9313 3.62251 15.9313 8.07499C15.9313 9.98069 15.2698 11.8113 14.0624 13.2662ZM13.8533 8.07499C13.8533 4.78391 11.2121 2.10652 7.96563 2.10652C4.71911 2.10652 2.07799 4.78391 2.07799 8.07499C2.07799 11.3661 4.71911 14.0435 7.96563 14.0435C11.2121 14.0435 13.8533 11.3661 13.8533 8.07499Z" fill="#1A2950"/>
</svg>
