<svg width="21" height="20" viewBox="0 0 21 20" fill="none" xmlns="http://www.w3.org/2000/svg">
<path fill-rule="evenodd" clip-rule="evenodd" d="M19.5475 1.07625C18.855 0.381875 17.9312 0 16.9506 0C15.97 0 15.0475 0.38125 14.3544 1.075L3.30874 12.0569C3.24312 12.1219 3.19312 12.2 3.16187 12.2863L0.661867 19.1612C0.581242 19.3831 0.633117 19.6338 0.796242 19.8056C0.916242 19.9319 1.08062 20 1.24999 20C1.31124 20 1.37249 19.9912 1.43312 19.9725L7.65124 18.065C7.74874 18.0356 7.83749 17.9819 7.90999 17.91L19.5481 6.27187C20.2431 5.57875 20.625 4.655 20.625 3.67375C20.6244 2.69313 20.2431 1.77 19.5475 1.07625ZM6.93249 16.9781L4.60499 17.6931C4.46937 17.295 4.25812 16.9425 3.96999 16.6544C3.71937 16.405 3.42874 16.2113 3.12249 16.0537L4.18749 13.125H5.62499V14.375C5.62499 14.7206 5.90437 15 6.24999 15H7.35312L6.93249 16.9781ZM8.51749 15.5344L16.1325 7.91937C16.5912 7.46125 16.8431 6.85313 16.8431 6.20563C16.8431 5.55813 16.5887 4.94938 16.1319 4.49125C15.675 4.03312 15.065 3.78125 14.4181 3.78125C13.7712 3.78125 13.1619 4.03312 12.7044 4.49125L12.6969 4.48438L5.26374 11.875H6.24999C6.59499 11.875 6.87499 12.155 6.87499 12.5V13.75H8.12499C8.31312 13.75 8.49124 13.835 8.60999 13.9819C8.72874 14.1281 8.77499 14.32 8.73624 14.505L8.51749 15.5344ZM18.6637 5.38812L18.0812 5.97125C18.025 5.07812 17.6544 4.24563 17.0169 3.6075C16.3787 2.96875 15.5456 2.59875 14.65 2.54313L15.2362 1.96125L15.2375 1.96C15.6937 1.50187 16.3031 1.25 16.9506 1.25C17.5981 1.25 18.2069 1.50187 18.6637 1.96C19.1225 2.41812 19.375 3.02688 19.375 3.67375C19.375 4.32188 19.1237 4.93062 18.6637 5.38812ZM8.30812 11.4331L14.5581 5.18313C14.8025 4.93875 15.1969 4.93875 15.4419 5.18313C15.6862 5.4275 15.6862 5.8225 15.4419 6.06687L9.19187 12.3169C9.06937 12.4388 8.90999 12.5 8.74999 12.5C8.58999 12.5 8.42937 12.4388 8.30812 12.3169C8.06374 12.0725 8.06374 11.6775 8.30812 11.4331Z" fill="#1A2950"/>
</svg>
